<?xml version="1.0" standalone="no"?>
<!DOCTYPE svg PUBLIC "-//W3C//DTD SVG 20010904//EN"
 "http://www.w3.org/TR/2001/REC-SVG-20010904/DTD/svg10.dtd">
<svg version="1.0" xmlns="http://www.w3.org/2000/svg"
 width="2000.000000pt" height="2000.000000pt" viewBox="0 0 2000.000000 2000.000000"
 preserveAspectRatio="xMidYMid meet">

<g transform="translate(0.000000,2000.000000) scale(0.100000,-0.100000)"
fill="#000000" stroke="none">
<path d="M8365 18191 c-33 -10 -98 -33 -145 -51 -121 -45 -208 -50 -319 -16
-101 31 -164 33 -207 7 -36 -22 -78 -73 -94 -115 -14 -37 -45 -232 -65 -405
-13 -113 -19 -137 -36 -149 -13 -9 -18 -20 -14 -31 4 -9 -2 -53 -12 -99 l-18
-83 -75 6 c-164 14 -246 29 -513 97 -299 75 -340 79 -386 37 -62 -58 15 -185
209 -341 126 -101 337 -204 561 -272 l87 -27 -28 -52 c-67 -123 -120 -346
-120 -501 0 -183 80 -352 253 -533 34 -36 54 -64 48 -68 -19 -11 -12 -52 14
-83 31 -37 31 -40 -1 -83 -23 -31 -25 -40 -20 -96 l5 -63 -45 0 c-65 0 -394
-110 -532 -178 -107 -52 -115 -54 -151 -43 -55 16 -71 14 -71 -10 0 -11 -15
-35 -34 -52 -35 -34 -56 -86 -78 -201 -6 -34 -21 -83 -34 -111 -29 -66 -47
-131 -83 -300 -38 -180 -56 -314 -81 -610 -24 -285 -32 -347 -70 -610 -17
-110 -37 -258 -45 -328 -8 -71 -18 -134 -21 -140 -4 -7 -23 -36 -43 -66 l-36
-54 0 -141 c0 -157 1 -152 -77 -254 -59 -78 -63 -115 -18 -181 28 -41 29 -46
15 -65 -9 -12 -18 -29 -22 -38 -3 -10 -11 -18 -19 -18 -23 0 -83 -33 -89 -49
-4 -9 -9 -122 -11 -251 -3 -148 -13 -322 -29 -470 -13 -129 -27 -287 -30 -350
-9 -169 -23 -273 -50 -386 -14 -56 -25 -130 -25 -165 0 -41 -8 -84 -21 -119
-24 -62 -22 -136 5 -188 18 -35 20 -69 7 -105 -7 -19 -5 -34 11 -63 l20 -38
-21 -75 c-11 -42 -25 -139 -32 -216 -7 -87 -20 -169 -35 -219 -29 -95 -29 -98
-7 -143 16 -34 16 -38 0 -65 -9 -16 -17 -51 -17 -76 0 -51 48 -271 73 -337 9
-22 32 -121 52 -220 45 -226 57 -258 101 -285 19 -12 34 -25 34 -28 1 -4 36
-252 79 -550 l78 -544 -23 -15 c-32 -20 -37 -45 -23 -93 12 -39 15 -41 41 -36
25 5 28 3 28 -19 0 -23 3 -25 38 -19 20 3 60 9 87 12 l50 7 -3 38 c-3 36 -3
37 30 37 18 0 39 4 46 9 11 6 -6 140 -83 683 l-97 675 27 39 c26 37 27 42 20
128 -4 49 -9 94 -11 101 -3 6 17 25 44 43 32 20 57 48 73 77 20 37 29 45 52
45 40 0 54 35 37 96 -8 26 -15 75 -17 108 -1 34 -5 88 -9 121 -5 53 -3 63 15
79 28 25 27 66 -3 163 -14 43 -36 138 -50 212 -22 112 -35 154 -82 253 -64
136 -77 205 -50 258 20 41 20 63 1 101 -13 23 -14 37 -5 67 5 20 10 60 10 88
0 87 88 390 154 529 54 114 187 346 283 493 40 62 80 127 90 145 19 37 22 132
5 164 -9 16 -9 35 0 77 10 54 10 57 -18 98 -54 81 -27 188 78 307 68 77 78
106 78 221 1 211 76 568 202 958 l43 133 55 -78 c31 -43 63 -89 71 -103 46
-73 69 -222 69 -445 0 -119 4 -156 26 -240 30 -118 27 -147 -22 -192 -32 -28
-36 -38 -34 -75 4 -68 3 -71 -50 -137 -28 -35 -60 -81 -70 -102 -26 -50 -26
-115 0 -154 24 -36 26 -71 4 -79 -9 -3 -35 -6 -58 -6 -54 0 -60 -7 -124 -145
-60 -129 -67 -180 -27 -195 46 -18 25 -56 -37 -67 -31 -5 -37 -13 -100 -142
-70 -141 -106 -236 -136 -356 -14 -56 -17 -110 -15 -275 1 -113 4 -225 5 -250
3 -44 2 -45 -27 -45 -27 0 -33 7 -62 64 -18 35 -33 76 -33 91 0 15 -9 35 -20
45 -19 17 -26 18 -66 7 -71 -19 -121 -58 -140 -108 -16 -43 -16 -48 6 -137 30
-120 74 -245 116 -329 41 -80 42 -102 9 -150 -39 -58 -42 -103 -9 -184 27 -68
27 -69 10 -114 -35 -89 -41 -128 -28 -187 7 -35 84 -201 214 -460 157 -315
209 -409 232 -426 45 -32 151 -37 188 -8 15 12 28 34 30 49 3 24 5 22 17 -18
31 -107 61 -280 86 -495 35 -315 77 -601 124 -850 22 -115 47 -259 55 -320 14
-104 14 -115 -4 -195 -25 -109 -25 -125 3 -152 58 -57 69 -96 42 -148 -14 -26
-13 -44 1 -170 25 -207 14 -232 -116 -265 -83 -21 -114 -40 -137 -82 -21 -40
-13 -76 47 -219 22 -51 67 -196 99 -321 76 -290 108 -396 296 -963 236 -713
339 -1057 370 -1234 22 -130 19 -239 -16 -483 -39 -277 -42 -433 -12 -516 12
-32 38 -80 57 -107 21 -30 31 -52 25 -56 -24 -14 -231 -36 -223 -23 7 12 3 11
-47 -7 -87 -33 -588 -26 -653 8 -24 13 -68 -9 -64 -31 5 -23 66 -50 114 -51
22 0 44 -4 50 -9 14 -13 124 -23 124 -11 0 5 7 10 15 10 8 0 15 -6 15 -14 0
-15 43 -24 118 -25 24 -1 49 -4 55 -8 19 -12 80 -2 93 14 13 18 34 9 34 -14 0
-9 2 -14 6 -11 3 3 24 0 47 -6 46 -14 230 -14 261 -1 13 6 23 3 31 -8 7 -10
21 -17 31 -16 18 0 18 1 0 8 -15 6 -10 10 24 21 32 10 43 11 49 2 4 -7 39 -14
77 -17 38 -3 104 -10 146 -16 44 -6 99 -8 125 -4 27 4 88 7 137 7 49 -1 94 2
100 6 6 3 35 5 64 4 65 -4 118 12 125 37 3 14 11 17 31 14 14 -3 29 -9 32 -14
3 -5 -3 -6 -13 -3 -10 3 -7 -2 7 -10 20 -12 22 -15 7 -16 -10 0 -16 -4 -13 -9
3 -5 76 -9 161 -8 128 0 155 2 151 13 -4 9 2 14 16 14 17 0 18 -2 8 -15 -16
-20 4 -20 23 0 8 8 17 11 21 8 10 -11 79 -13 90 -4 6 5 31 12 56 15 34 5 39 4
23 -4 -36 -15 -27 -18 35 -14 31 2 68 4 81 4 13 0 29 4 35 9 9 8 112 31 136
31 4 0 7 -6 7 -13 0 -9 -9 -12 -24 -9 -13 2 -23 -1 -23 -7 0 -6 11 -11 25 -11
33 0 40 3 39 16 -1 6 9 11 22 11 13 0 21 -3 18 -8 -3 -5 5 -7 18 -5 13 3 33 5
46 5 13 1 21 5 17 10 -8 15 56 24 85 12 14 -5 19 -10 12 -10 -7 -1 -10 -6 -6
-12 5 -8 9 -7 16 4 7 14 11 14 36 1 15 -8 38 -12 52 -9 14 3 42 7 62 10 21 2
54 7 73 11 23 4 35 2 35 -5 0 -6 10 -11 23 -11 51 -1 88 -1 100 1 7 1 25 -1
41 -5 20 -5 26 -4 20 5 -5 9 -1 10 14 7 12 -3 29 0 38 7 11 7 33 11 55 8 22
-3 39 -1 44 7 5 8 11 7 23 -4 20 -18 72 -32 72 -19 0 5 12 9 28 8 19 0 27 5
26 16 -1 11 8 16 27 17 34 1 44 -11 24 -28 -8 -7 -15 -15 -15 -19 0 -10 114 0
121 11 4 6 30 12 59 14 28 2 58 11 67 19 18 18 35 19 51 3 7 -7 12 -8 12 -3 0
5 7 0 16 -11 8 -10 13 -14 10 -8 -6 12 88 7 113 -6 13 -7 107 12 119 25 3 3
-18 4 -47 1 -29 -2 -55 -7 -58 -10 -4 -3 -11 -6 -17 -6 -6 0 -6 4 2 12 9 9 7
14 -6 24 -26 19 -9 27 61 28 36 1 71 7 78 13 11 9 20 8 39 -2 14 -8 19 -14 11
-15 -8 0 -11 -3 -8 -7 4 -3 2 -12 -4 -20 -9 -10 -3 -13 33 -13 24 0 48 -4 54
-9 10 -9 84 -25 84 -17 0 2 -7 12 -16 21 -9 9 -13 19 -9 23 4 4 10 1 12 -5 3
-7 20 -13 39 -13 20 0 33 -4 30 -9 -15 -24 143 -21 180 4 21 14 24 14 24 0 0
-8 9 -15 20 -15 11 0 20 5 20 10 0 6 9 10 20 10 10 0 31 6 46 12 22 10 28 10
32 0 2 -6 12 -12 21 -12 10 0 21 -3 25 -7 8 -8 45 -12 44 -4 0 3 1 8 2 11 12
32 0 55 -15 30 -6 -10 -28 -8 -109 7 -18 3 -26 1 -22 -5 8 -13 -10 -25 -24
-17 -12 7 25 40 62 54 l23 9 -25 10 c-14 6 -19 11 -11 11 8 1 12 4 8 7 -3 3
-21 1 -39 -5 -18 -6 -75 -12 -127 -15 -97 -5 -115 -10 -91 -27 11 -8 8 -8 -10
-3 -14 4 -26 11 -28 15 -2 5 -15 6 -29 3 -18 -5 -24 -3 -19 5 4 6 29 11 56 11
27 0 52 4 55 10 4 6 -5 10 -19 10 -27 0 -35 15 -13 23 9 4 9 6 0 6 -7 1 -27
-8 -45 -19 -34 -20 -89 -30 -58 -10 11 7 1 10 -35 11 -29 1 -39 4 -22 6 32 5
36 23 5 23 -13 -1 -46 2 -74 6 -31 4 -59 2 -72 -5 -14 -7 -29 -8 -46 -1 -21 7
-26 6 -26 -5 0 -10 -9 -15 -27 -14 -17 1 -21 3 -10 6 32 8 17 18 -26 17 -73
-3 -78 -4 -73 -12 7 -11 -26 -12 -40 -1 -14 11 -174 9 -174 -3 0 -4 -5 -8 -11
-8 -5 0 -7 5 -3 12 8 12 -144 6 -181 -7 -14 -6 -17 -5 -10 3 6 5 19 12 30 15
22 5 -67 -1 -100 -8 -11 -2 -39 -4 -63 -4 -40 -1 -42 -3 -36 -25 7 -30 -4 -37
-41 -28 l-29 8 22 22 c19 19 20 22 4 22 -9 0 -75 1 -147 1 -205 1 -707 -9
-827 -17 -85 -5 -108 -10 -104 -20 8 -21 -12 -27 -35 -11 -15 11 -17 16 -7 21
7 3 -9 3 -37 0 -39 -4 -47 -3 -35 6 12 9 2 10 -40 5 -77 -9 -200 -11 -294 -4
-95 7 -164 1 -144 -13 8 -6 -6 -6 -37 -1 -27 4 -87 7 -133 7 l-82 -1 21 31
c69 103 104 223 102 351 -1 79 -38 384 -64 518 -9 48 -8 49 48 130 31 45 72
116 92 157 l36 75 0 230 c0 213 1 232 20 261 76 120 79 128 78 179 -1 27 -8
70 -17 94 -20 54 -21 136 -2 189 8 22 38 91 67 153 31 66 93 240 150 418 53
169 127 391 164 496 36 104 82 249 101 322 19 73 38 143 43 157 6 13 17 59 26
101 19 93 9 141 -36 179 -39 33 -63 33 -96 0 -14 -14 -27 -23 -30 -20 -11 10
-3 143 12 216 8 41 34 150 57 242 l43 168 -20 37 c-11 20 -34 54 -52 75 -28
33 -30 42 -22 70 4 17 19 48 32 67 63 95 64 98 81 386 9 149 23 331 31 405 20
183 75 562 85 579 6 11 10 9 21 -10 37 -70 42 -548 6 -616 -9 -18 -17 -46 -17
-63 0 -17 -8 -47 -19 -68 -14 -27 -19 -60 -19 -124 0 -48 3 -90 8 -93 5 -3 7
-12 3 -20 -3 -9 0 -22 7 -30 7 -9 10 -18 6 -22 -3 -3 1 -14 9 -23 12 -13 13
-22 3 -47 -9 -24 -8 -38 5 -72 10 -23 17 -52 17 -66 0 -13 9 -33 20 -43 25
-23 61 -92 54 -103 -11 -18 -17 -111 -15 -229 2 -99 7 -132 22 -162 10 -21 24
-60 30 -88 6 -28 22 -63 35 -79 13 -16 24 -36 24 -45 0 -9 14 -28 30 -43 17
-14 30 -32 30 -40 0 -8 16 -23 35 -34 20 -12 40 -30 46 -41 6 -11 26 -26 44
-34 18 -7 42 -24 52 -37 10 -14 33 -32 51 -41 18 -9 34 -27 38 -41 3 -14 12
-25 20 -25 18 0 18 -1 -7 65 -14 37 -32 64 -56 82 -19 15 -48 50 -64 78 -15
27 -46 68 -68 89 -24 24 -47 59 -56 87 -9 26 -23 53 -31 59 -7 7 -14 28 -14
47 0 18 -7 45 -16 58 -10 16 -14 34 -10 51 4 15 2 32 -5 40 -10 12 -18 68 -18
137 -1 15 -5 37 -11 47 -7 13 -7 26 -2 36 8 14 12 12 30 -11 17 -21 19 -31 11
-46 -5 -11 -7 -25 -3 -31 4 -6 9 -42 11 -80 2 -43 10 -82 23 -105 11 -21 20
-47 20 -59 0 -11 9 -29 20 -39 11 -10 25 -35 30 -57 7 -23 33 -62 68 -101 32
-34 69 -80 84 -103 14 -23 50 -63 78 -90 41 -39 64 -73 106 -163 30 -63 54
-122 54 -132 0 -21 20 -30 36 -15 13 12 10 32 -21 111 -13 33 -29 76 -36 95
-7 19 -38 62 -69 95 -31 33 -67 78 -80 100 -13 22 -47 65 -76 95 -28 30 -57
71 -63 91 -6 20 -22 46 -36 59 -14 13 -28 43 -34 72 -6 27 -18 62 -26 78 -10
19 -14 51 -12 97 3 61 5 68 25 71 13 2 25 -3 28 -12 3 -9 11 -16 18 -16 15 0
39 -57 32 -77 -4 -9 0 -26 9 -39 8 -13 12 -30 9 -38 -3 -8 0 -25 7 -38 7 -13
13 -27 14 -33 0 -5 10 -31 23 -57 12 -26 22 -51 21 -55 -4 -24 2 -53 12 -53 5
0 8 4 4 9 -3 5 -1 12 4 15 5 4 23 -17 40 -46 16 -29 60 -82 96 -118 37 -36 82
-88 100 -116 18 -28 57 -78 88 -112 47 -53 58 -73 76 -142 12 -43 31 -100 42
-126 12 -25 25 -78 31 -116 7 -54 22 -95 65 -176 76 -145 71 -139 133 -170 30
-15 58 -31 61 -35 3 -5 9 1 12 12 4 16 -6 29 -43 57 -57 43 -84 88 -100 168
-7 32 -21 84 -32 115 -10 31 -23 101 -28 156 -8 88 -15 114 -61 220 -55 127
-76 160 -150 240 -26 28 -64 77 -84 110 -21 33 -64 89 -96 124 -44 48 -66 83
-89 143 -17 45 -38 91 -46 103 -8 12 -12 30 -8 39 4 9 0 24 -9 34 -16 18 -12
82 5 82 15 0 78 -71 72 -81 -3 -5 0 -9 6 -9 6 0 9 -4 5 -9 -3 -5 -1 -12 4 -15
5 -4 17 -32 26 -64 23 -77 38 -106 99 -182 29 -36 71 -96 93 -135 23 -38 66
-99 97 -134 40 -46 65 -87 86 -144 17 -43 42 -97 56 -119 14 -22 31 -68 38
-102 7 -34 23 -81 35 -105 12 -23 27 -71 33 -104 6 -34 23 -87 39 -117 15 -30
32 -73 38 -96 6 -22 23 -51 37 -65 15 -13 35 -43 46 -66 10 -23 36 -56 58 -73
22 -17 48 -45 57 -62 10 -16 36 -39 58 -50 22 -11 59 -38 82 -59 24 -22 51
-39 61 -39 11 0 39 -13 63 -30 48 -32 72 -38 63 -16 -3 8 -12 12 -20 9 -8 -3
-14 0 -14 6 0 6 -28 25 -62 42 -43 22 -93 62 -168 137 -106 107 -109 110 -216
311 -13 25 -24 60 -24 79 0 18 -13 67 -30 109 -16 41 -30 91 -30 111 0 20 -13
65 -29 98 -16 34 -34 87 -41 118 -6 31 -16 56 -21 56 -5 0 -9 8 -9 18 0 10 -5
23 -12 30 -7 7 -8 12 -3 12 16 0 31 -14 38 -33 4 -11 16 -21 27 -24 11 -3 22
-14 25 -24 4 -11 24 -31 46 -44 21 -14 45 -38 54 -55 9 -17 33 -42 54 -56 22
-14 45 -40 52 -57 7 -18 28 -48 46 -68 21 -22 38 -54 44 -79 5 -23 21 -58 34
-78 15 -21 25 -51 25 -72 0 -19 12 -57 25 -85 14 -27 25 -64 25 -82 0 -17 5
-35 11 -38 6 -5 9 10 6 44 l-3 51 24 -23 c13 -12 34 -42 47 -67 13 -25 37 -53
54 -63 18 -10 43 -36 56 -58 26 -40 97 -94 104 -77 1 5 -15 31 -37 57 -23 27
-55 73 -73 102 -17 30 -54 79 -83 109 -44 47 -57 71 -89 160 -32 91 -45 180
-27 180 3 0 19 -12 36 -28 40 -35 74 -93 74 -124 0 -13 11 -35 25 -48 13 -12
29 -38 35 -56 6 -19 24 -43 40 -54 33 -23 49 -12 19 13 -10 9 -19 28 -19 41 0
13 -7 29 -15 36 -8 7 -15 25 -15 40 0 28 1 28 28 14 16 -7 34 -25 40 -38 6
-13 20 -27 31 -31 11 -3 23 -16 27 -28 3 -12 19 -35 34 -52 15 -16 31 -44 34
-61 4 -17 18 -42 32 -54 13 -13 24 -33 24 -45 0 -25 38 -86 58 -93 17 -5 15
18 -3 38 -9 10 -19 35 -22 56 -3 22 -14 50 -25 63 -10 13 -18 36 -18 51 0 15
-9 39 -20 53 -11 14 -20 33 -20 44 0 10 -9 24 -20 31 -11 7 -20 20 -20 30 0 9
-9 23 -20 30 -29 18 -25 32 5 19 14 -7 25 -18 25 -24 0 -7 7 -13 15 -13 8 0
15 -9 15 -19 0 -10 7 -21 15 -25 8 -3 15 -14 15 -24 0 -11 7 -25 15 -32 8 -7
12 -17 9 -22 -4 -5 3 -23 15 -39 11 -15 21 -39 21 -52 0 -13 9 -36 20 -50 12
-14 26 -41 32 -59 6 -18 23 -45 39 -60 23 -21 30 -24 40 -12 8 10 6 19 -10 40
-12 15 -21 38 -21 51 0 14 -11 46 -24 72 -13 25 -28 65 -33 88 l-10 41 124
-116 c91 -86 135 -136 165 -187 48 -81 133 -207 126 -185 -3 8 -15 44 -27 80
-24 75 -49 114 -143 225 -37 44 -86 105 -110 135 -24 30 -80 82 -125 115 -57
42 -82 66 -83 81 0 12 -7 27 -15 34 -8 7 -15 25 -15 41 0 15 -4 31 -10 34 -5
3 -10 16 -10 28 0 30 56 35 66 5 3 -11 25 -28 47 -38 23 -10 50 -27 59 -39 10
-12 27 -21 37 -21 11 0 32 -11 48 -24 15 -12 38 -28 51 -35 12 -6 22 -17 22
-24 0 -7 18 -28 41 -47 22 -19 56 -50 75 -68 19 -17 43 -32 54 -32 10 0 28
-12 40 -27 12 -15 34 -33 50 -39 16 -7 37 -25 47 -40 10 -16 28 -38 40 -51 13
-12 23 -33 23 -46 0 -14 7 -30 16 -38 9 -7 13 -21 10 -33 -5 -20 22 -76 37
-76 5 0 7 11 5 24 -1 13 3 35 11 49 9 17 10 30 3 43 -6 11 -6 27 0 45 7 21 5
34 -7 53 -10 14 -14 33 -11 42 6 15 8 15 26 -1 11 -10 20 -31 20 -47 0 -40 15
-35 18 7 2 23 -6 50 -23 79 -14 23 -25 50 -25 58 0 9 -16 35 -35 58 -19 23
-35 50 -35 60 0 11 -7 23 -16 28 -14 8 -14 10 4 15 12 3 26 -1 33 -9 6 -8 22
-14 34 -14 33 0 65 -45 65 -90 0 -57 18 -99 75 -175 29 -38 64 -88 77 -110 14
-22 62 -73 107 -113 44 -40 95 -93 112 -117 18 -25 36 -42 40 -39 14 8 10 57
-6 78 -8 11 -15 28 -15 39 0 10 -10 27 -22 37 -13 10 -20 21 -16 25 8 8 43
-10 81 -41 16 -13 41 -24 55 -24 15 0 44 -9 65 -20 48 -26 127 -24 127 3 0 12
-8 17 -27 17 -16 0 -41 9 -58 20 -19 13 -39 18 -56 15 -17 -4 -34 1 -51 15
-14 11 -36 20 -48 20 -12 0 -38 16 -57 35 -19 19 -48 44 -64 56 -16 11 -32 32
-35 47 -4 15 -20 42 -35 59 -15 18 -31 49 -35 68 -3 20 -15 40 -25 46 -11 5
-19 18 -19 29 0 11 -16 35 -35 54 -19 20 -35 40 -35 45 0 5 -10 11 -22 13 -17
2 -22 11 -24 41 -1 20 2 40 7 43 5 3 9 2 9 -3 0 -4 14 -9 31 -10 18 -1 39 -9
48 -16 9 -8 24 -17 34 -20 9 -4 17 -15 17 -25 0 -11 7 -25 15 -32 8 -7 15 -23
15 -35 0 -12 7 -28 15 -35 8 -7 15 -25 15 -40 0 -16 7 -30 15 -34 9 -3 21 -19
26 -35 6 -17 19 -33 30 -36 11 -4 31 -24 45 -45 16 -24 44 -48 73 -62 25 -12
65 -36 88 -54 24 -19 60 -35 85 -39 24 -4 65 -13 92 -21 38 -11 52 -11 57 -2
8 12 -71 54 -146 78 -22 7 -60 32 -85 55 -25 24 -64 55 -87 69 -30 18 -51 42
-69 79 -15 28 -33 56 -40 60 -8 4 -14 23 -14 41 0 19 -7 39 -15 46 -8 7 -15
27 -15 45 0 19 -8 39 -19 49 -11 10 -21 28 -23 39 -2 12 -13 27 -26 33 -13 6
-30 21 -38 33 -8 11 -25 21 -38 21 -12 0 -27 5 -33 11 -6 6 -17 12 -24 13 -35
7 -49 18 -39 31 6 7 8 20 4 28 -3 9 -2 22 3 29 4 7 8 22 8 32 0 11 6 21 13 23
6 3 12 -2 12 -11 0 -9 7 -16 15 -16 8 0 15 -6 15 -13 0 -7 9 -18 20 -25 11 -7
20 -19 20 -27 0 -8 18 -26 39 -39 22 -14 42 -34 46 -46 3 -11 19 -27 35 -35
15 -8 33 -29 39 -46 6 -18 20 -38 31 -46 11 -8 20 -25 20 -39 0 -14 9 -37 20
-51 11 -14 20 -36 20 -48 0 -12 9 -30 21 -41 12 -10 30 -38 41 -61 11 -24 35
-52 54 -64 19 -11 47 -37 62 -57 16 -21 48 -45 80 -59 29 -13 65 -32 80 -42
20 -14 51 -21 117 -24 86 -6 93 -5 155 26 61 30 65 35 71 72 4 22 5 43 2 47
-2 4 -21 -1 -41 -12 -20 -11 -51 -20 -69 -20 -18 0 -43 -5 -56 -11 -41 -19
-157 4 -207 40 -24 17 -49 31 -57 31 -24 0 -160 146 -168 179 -3 16 -15 37
-26 47 -11 10 -17 25 -14 34 3 9 -3 25 -15 35 -11 10 -20 28 -20 41 0 13 -9
28 -20 34 -11 6 -20 20 -20 31 0 12 -8 23 -20 26 -11 3 -23 16 -26 28 -3 13
-15 25 -26 28 -11 3 -22 15 -25 26 -3 11 -14 23 -25 27 -11 3 -27 19 -37 35
-9 15 -29 37 -43 48 -14 12 -29 32 -32 46 -3 13 -15 29 -26 35 -12 6 -17 16
-13 26 4 12 12 8 34 -18 16 -18 38 -49 50 -69 12 -20 38 -46 59 -58 54 -30
198 -173 214 -212 8 -19 26 -45 39 -57 14 -13 31 -38 38 -55 15 -36 142 -167
163 -167 7 0 31 -12 52 -27 22 -15 56 -28 79 -29 22 -2 63 -6 90 -10 28 -3 61
-2 74 3 24 10 114 -5 143 -23 21 -14 198 -13 230 0 27 12 28 14 12 27 -11 9
-45 14 -98 15 -45 0 -91 6 -103 12 -12 7 -28 9 -36 6 -8 -3 -31 6 -52 20 -21
14 -44 26 -51 26 -7 0 -21 11 -32 25 -11 13 -31 29 -45 36 -14 6 -28 22 -31
35 -3 12 -15 26 -27 29 -11 4 -25 18 -31 31 -6 13 -22 31 -35 39 -14 9 -23 25
-23 40 0 21 5 25 29 25 23 0 31 -6 39 -29 6 -16 21 -35 34 -42 13 -6 54 -38
91 -71 38 -32 75 -58 84 -58 9 0 45 -14 80 -31 36 -17 70 -28 81 -25 10 4 40
0 67 -9 38 -11 51 -12 57 -2 12 18 10 27 -6 27 -7 0 -19 6 -25 14 -6 7 -29 16
-51 19 -22 3 -51 14 -66 26 -15 12 -37 21 -49 21 -12 0 -39 14 -60 30 -21 17
-43 30 -50 30 -7 0 -15 7 -19 15 -8 22 41 8 77 -22 16 -12 40 -23 54 -23 15 0
45 -11 67 -24 23 -13 59 -29 81 -35 26 -7 62 -32 103 -71 52 -51 62 -66 62
-95 0 -47 13 -50 35 -9 17 33 17 36 0 76 -9 24 -21 53 -26 65 -5 13 -31 33
-66 49 -32 15 -68 36 -80 47 -13 12 -30 17 -42 14 -11 -3 -25 1 -32 9 -6 8
-26 14 -44 14 -18 0 -38 7 -45 15 -7 8 -23 15 -36 15 -12 0 -29 8 -36 18 -7 9
-25 23 -40 29 -27 12 -39 43 -18 43 6 0 10 -4 10 -9 0 -5 17 -15 38 -21 20 -7
53 -23 72 -36 21 -14 61 -27 101 -33 37 -5 81 -17 98 -26 18 -9 57 -20 86 -25
52 -8 80 -26 193 -121 13 -10 26 -19 28 -19 10 0 2 42 -16 83 -21 48 -52 77
-81 77 -9 0 -37 11 -63 25 -27 14 -64 25 -86 25 -44 0 -64 16 -22 18 127 6
265 5 269 -2 3 -4 21 -14 39 -22 23 -10 34 -21 34 -35 0 -23 20 -47 36 -42 13
4 1 106 -13 110 -6 2 -36 19 -68 38 -47 29 -67 35 -114 35 -68 0 -100 15 -56
26 33 8 47 8 175 -1 75 -6 103 -12 131 -30 34 -22 84 -31 73 -13 -3 4 -1 8 4
8 5 0 -7 18 -27 40 -20 22 -42 40 -49 40 -6 0 -12 5 -12 11 0 8 16 10 50 6 41
-5 59 -2 94 17 24 13 53 25 65 29 11 3 29 20 38 37 10 18 29 46 42 62 15 18
20 33 14 39 -13 13 -60 -11 -72 -39 -6 -12 -20 -22 -30 -22 -11 0 -25 -9 -31
-20 -7 -13 -21 -20 -40 -20 -16 0 -31 -4 -34 -9 -8 -13 -115 -6 -128 7 -7 7
-23 12 -38 12 -14 0 -38 9 -55 20 -16 11 -43 20 -59 20 -35 0 -25 16 28 44
l35 19 34 -37 c19 -20 44 -36 55 -36 12 0 38 -8 57 -17 35 -17 38 -17 73 3 20
12 51 25 68 28 18 4 44 20 58 37 15 16 40 32 57 36 17 3 33 11 35 17 6 15 133
11 148 -4 14 -14 22 -13 40 5 13 14 12 18 -10 40 -14 14 -36 25 -49 25 -13 0
-35 5 -48 11 -20 9 -37 7 -90 -15 -51 -20 -83 -26 -144 -26 -70 0 -82 3 -101
23 l-22 23 23 22 c27 26 40 27 57 7 7 -8 24 -15 39 -15 15 0 32 -5 38 -11 7
-7 17 -8 30 -1 10 6 30 8 44 5 15 -3 30 0 33 6 4 6 20 11 36 11 18 0 34 8 44
21 19 27 64 51 72 38 3 -6 11 -8 17 -6 6 2 23 -2 36 -9 19 -10 28 -10 39 -2
11 10 11 13 -2 20 -9 5 -16 16 -16 23 0 8 -6 15 -14 15 -7 0 -19 7 -26 15 -7
9 -20 15 -29 14 -9 -1 -24 1 -34 6 -17 7 -17 8 0 21 14 10 15 15 6 25 -10 10
-16 9 -31 -4 -10 -9 -30 -17 -43 -17 -14 0 -33 -6 -44 -14 -11 -7 -41 -15 -67
-18 l-48 -6 29 37 c16 20 38 44 49 54 26 23 87 30 103 11 6 -8 22 -14 34 -14
12 0 28 -7 35 -15 7 -8 23 -15 36 -15 13 0 24 -4 24 -10 0 -5 11 -9 25 -8 14
1 25 8 25 15 0 18 -60 73 -80 73 -9 0 -25 9 -35 20 -11 12 -31 20 -51 20 -60
0 -53 38 14 65 30 13 37 13 55 0 12 -8 31 -12 44 -9 14 4 34 -1 49 -11 20 -13
32 -14 53 -7 15 6 39 8 53 5 29 -6 43 10 52 58 8 45 -14 71 -39 46 -8 -9 -15
-19 -15 -24 0 -25 -102 -39 -119 -16 -3 4 -12 8 -20 8 -8 0 -16 6 -18 13 -3 7
5 12 23 12 15 0 35 6 43 14 21 19 133 25 153 8 15 -12 48 -7 48 7 0 4 -22 18
-49 31 -44 20 -55 22 -93 12 -55 -14 -138 -22 -138 -13 0 15 87 89 110 94 14
3 33 0 44 -9 11 -8 30 -14 42 -14 12 0 27 -7 34 -15 7 -9 20 -13 27 -10 8 2
22 1 31 -4 13 -7 25 -2 46 15 38 33 29 53 -24 50 -22 -2 -43 1 -46 5 -3 5 -16
9 -30 9 -13 0 -24 5 -24 10 0 6 -9 10 -19 10 -11 0 -23 5 -27 11 -12 20 55 46
80 31 16 -9 106 -10 112 0 3 4 17 8 31 8 28 0 71 30 66 45 -2 7 -39 8 -101 4
-53 -4 -98 -6 -100 -4 -1 1 24 20 55 42 69 48 106 59 123 38 7 -8 21 -15 31
-15 11 0 19 -6 19 -14 0 -8 9 -18 20 -21 11 -3 20 -13 20 -21 0 -9 11 -14 30
-14 32 0 38 15 21 48 -5 9 -12 25 -15 35 -3 9 -13 17 -23 17 -10 0 -24 9 -31
20 -7 11 -20 20 -30 21 -10 0 -3 7 17 15 24 11 37 12 44 5 6 -6 23 -11 38 -11
15 0 31 -4 34 -10 11 -18 52 -11 58 10 3 11 0 20 -6 20 -7 0 -22 11 -34 24
l-23 24 31 12 c23 10 33 10 42 1 6 -6 19 -11 28 -11 9 0 22 -7 29 -15 7 -8 20
-15 30 -15 10 0 21 -7 24 -15 4 -13 10 -14 26 -5 20 11 20 12 -10 51 -18 21
-38 39 -46 39 -25 0 -15 18 14 24 23 5 61 2 70 -4 2 -3 7 -4 40 -15 12 -4 22
-12 22 -17 0 -5 4 -7 9 -3 5 3 12 1 16 -5 4 -6 11 -6 19 2 18 17 -11 68 -39
69 -43 1 21 17 120 29 78 10 135 10 276 0 261 -18 426 0 531 57 46 25 88 65
88 83 0 4 -73 31 -162 60 -272 87 -421 173 -532 307 -30 36 -91 131 -136 211
-187 333 -249 423 -357 515 -184 158 -318 214 -708 297 -225 48 -293 69 -371
116 -128 76 -203 172 -337 430 -137 264 -193 340 -309 418 -135 92 -345 117
-658 77 -847 -107 -1436 7 -2097 406 -424 255 -753 565 -1009 948 -69 104 -83
133 -102 208 -12 48 -36 124 -52 169 l-30 83 22 17 c13 10 26 18 30 18 3 0 16
16 28 34 l21 35 -27 88 c-14 48 -44 139 -66 201 -46 128 -66 152 -118 134
l-30 -11 -21 71 c-21 71 -41 99 -104 144 -28 20 -30 26 -35 106 -6 83 -8 90
-63 180 -88 145 -101 205 -101 463 0 196 1 216 26 307 30 111 90 232 147 298
l39 44 36 -57 c47 -73 67 -119 128 -297 64 -187 88 -230 209 -375 127 -152
139 -184 115 -315 -20 -107 -20 -180 -2 -223 17 -42 72 -90 145 -127 79 -39
111 -79 111 -136 0 -59 21 -97 67 -125 21 -12 40 -24 42 -25 2 -2 -9 -34 -24
-73 -15 -38 -25 -76 -22 -84 3 -9 40 -41 82 -72 42 -31 129 -107 193 -169 111
-106 502 -473 619 -579 66 -61 83 -92 83 -152 0 -64 12 -81 79 -115 97 -48
139 -114 161 -250 17 -102 41 -148 113 -217 146 -138 166 -163 286 -357 38
-61 77 -86 135 -86 66 0 61 59 -16 177 -99 151 -121 234 -70 259 13 6 33 9 45
6 38 -9 142 -125 177 -195 31 -63 32 -68 25 -151 -9 -100 3 -139 46 -162 52
-26 78 -2 148 135 36 70 61 132 61 151 0 43 -20 86 -108 235 -81 138 -76 132
-408 450 -89 85 -95 94 -109 150 -7 33 -18 61 -25 63 -29 10 -70 57 -83 96 -8
25 -36 77 -62 116 -58 89 -81 144 -207 500 -147 416 -197 526 -264 576 -36 28
-147 64 -197 64 -21 0 -30 7 -38 27 -5 14 -25 47 -43 72 -50 69 -75 123 -93
204 -19 86 -30 108 -98 207 -103 147 -135 240 -135 395 0 213 -24 271 -174
424 -121 124 -137 149 -183 281 -54 153 -55 150 27 86 133 -104 245 -144 426
-153 128 -7 260 12 413 57 214 63 263 73 371 74 99 1 110 -1 168 -30 34 -17
62 -27 62 -22 0 17 -78 58 -140 74 -88 22 -186 14 -416 -36 -101 -21 -222 -44
-271 -51 -221 -29 -429 31 -574 168 -39 37 -80 80 -92 97 -20 28 -17 27 43
-16 226 -160 438 -203 780 -159 515 65 726 40 857 -102 45 -48 83 -138 83
-195 0 -20 5 -44 11 -52 21 -30 4 151 -18 202 -28 62 -97 130 -172 167 -171
87 -392 105 -746 59 -150 -19 -327 -14 -420 11 -89 24 -264 106 -310 145 l-30
26 28 -10 c63 -22 190 -50 322 -70 113 -18 211 -24 510 -30 404 -9 481 -17
720 -75 195 -47 314 -96 419 -173 34 -25 46 -30 38 -16 -39 73 -184 189 -305
244 -175 79 -296 103 -657 129 -69 5 -136 14 -150 20 -18 7 65 9 275 8 274 -2
308 0 395 20 121 27 197 56 261 99 l50 34 48 -50 c62 -64 109 -160 129 -261
11 -56 19 -79 30 -79 12 0 13 12 8 71 -15 149 -74 270 -175 362 -52 46 -163
107 -195 107 -9 0 -16 5 -16 10 0 10 81 16 155 12 97 -6 334 -105 450 -187
121 -86 255 -246 302 -360 21 -52 38 -60 28 -12 -37 171 -175 345 -377 478
-50 32 -86 59 -82 59 5 0 51 -11 103 -25 121 -33 229 -76 315 -127 81 -48 209
-167 262 -243 20 -30 39 -55 40 -55 2 0 0 17 -2 38 -21 150 -146 338 -301 448
-123 89 -279 144 -508 181 -92 14 -172 17 -480 17 l-370 -1 115 24 c108 22
129 23 337 18 158 -4 223 -3 228 5 4 6 5 14 2 16 -3 3 -67 13 -144 23 -124 16
-133 19 -94 25 53 10 236 11 311 3 l55 -6 -57 19 c-71 24 -185 40 -291 41
l-82 1 120 23 c143 27 122 32 375 -90 220 -105 287 -125 451 -132 214 -9 372
38 474 141 91 93 103 152 14 72 -44 -40 -160 -106 -186 -106 -4 0 -17 16 -27
35 -46 85 -186 181 -352 242 l-99 37 -231 5 -231 6 -46 42 c-58 53 -145 110
-199 129 -59 20 -180 18 -266 -6 -41 -11 -135 -48 -209 -81 -260 -115 -329
-129 -494 -105 -146 22 -245 49 -319 86 -33 17 -60 32 -60 35 0 3 122 3 270 0
292 -5 293 -5 575 59 143 33 292 54 437 62 l117 7 39 -35 c124 -112 285 -145
444 -89 61 21 192 90 185 98 -3 2 -27 -5 -54 -16 -66 -26 -190 -51 -250 -51
-44 1 -50 4 -74 39 -32 46 -131 113 -208 142 -47 17 -62 28 -80 60 -62 110
-144 183 -249 221 -47 18 -79 22 -187 21 -160 0 -247 -21 -487 -116 -232 -93
-300 -111 -382 -102 -76 8 -79 19 -7 29 112 15 241 72 431 191 234 147 357
195 494 195 184 -1 376 -119 476 -293 34 -60 38 -58 11 6 -77 180 -219 309
-380 347 -67 16 -219 8 -280 -14 -41 -15 -43 -15 -36 2 22 54 18 56 -26 19
-123 -106 -365 -177 -604 -177 -87 0 -120 16 -39 19 130 4 249 58 353 160 67
65 138 158 128 167 -3 3 -22 -16 -42 -41 -52 -63 -150 -139 -226 -175 -87 -41
-101 -38 -43 9 55 44 98 94 137 162 26 43 31 47 149 92 202 77 256 81 343 22
51 -35 38 -7 -14 30 -38 27 -50 30 -114 29 -58 0 -96 -9 -192 -42 -65 -23
-122 -42 -127 -42 -4 0 -3 12 2 26 6 14 10 35 10 47 0 12 7 35 15 51 18 33 19
39 5 31 -6 -4 -11 16 -11 52 l-2 58 -7 -62 c-4 -34 -13 -69 -20 -78 -20 -24
-113 -47 -157 -39 -60 11 -127 49 -169 97 -22 24 -68 97 -104 161 -136 248
-245 316 -505 316 -125 0 -230 -16 -429 -66 -76 -19 -141 -32 -144 -29 -3 3
-1 5 5 5 6 0 71 37 144 81 302 184 409 212 523 134 20 -13 36 -20 36 -15 0 16
-76 61 -120 71 -91 20 -191 -15 -461 -165 -37 -20 -88 -40 -113 -45 -26 -5
-46 -7 -44 -6 16 16 340 206 396 232 148 69 295 89 417 58 99 -26 193 -77 330
-180 72 -54 164 -114 205 -134 69 -33 82 -36 165 -36 74 0 98 4 138 23 65 33
59 45 -10 20 -81 -29 -199 -28 -272 1 -64 26 -111 57 -246 166 -165 133 -293
185 -456 185 -153 0 -209 -20 -539 -192 -91 -47 -198 -96 -238 -109 -65 -21
-77 -22 -120 -11 -26 7 -67 23 -92 35 -39 19 -50 32 -81 95 -32 64 -35 74 -20
79 52 19 233 109 306 153 107 64 240 190 304 286 80 119 87 212 19 270 -30 24
-38 26 -98 21 -80 -6 -255 -59 -460 -139 -85 -33 -197 -76 -247 -94 l-93 -33
-16 57 c-9 31 -21 63 -26 69 -6 7 -8 24 -4 37 7 27 -7 42 -42 48 -18 2 -32 22
-66 98 -24 52 -57 140 -75 194 -76 238 -147 316 -295 322 -49 3 -90 -2 -131
-15z m-975 -1539 c-105 -289 -87 -584 51 -813 37 -63 46 -85 40 -105 -7 -26
-8 -26 -64 36 -104 115 -177 289 -177 425 0 190 107 535 166 535 9 0 5 -22
-16 -78z m3060 18 c137 -26 237 -106 314 -251 l40 -74 -63 63 c-48 47 -86 73
-155 106 -158 76 -222 81 -536 42 -252 -32 -383 -41 -456 -31 l-59 9 68 8 c37
4 150 29 250 54 313 79 467 99 597 74z m-957 -77 c-7 -2 -21 -2 -30 0 -10 3
-4 5 12 5 17 0 24 -2 18 -5z m1122 -187 c68 -31 99 -59 203 -184 91 -107 162
-171 217 -193 17 -6 57 -14 90 -18 l60 -6 -55 -59 c-68 -74 -148 -126 -244
-161 l-75 -27 -76 25 c-142 48 -197 87 -363 255 l-153 154 73 -7 c224 -20 359
-61 440 -133 28 -26 57 -60 65 -77 14 -30 14 -30 10 18 -6 59 -42 116 -105
162 -91 67 -205 97 -439 116 -223 17 -292 29 -398 64 l-100 33 64 1 c76 1 485
38 556 50 98 17 176 13 230 -13z m-3069 -275 c18 -101 62 -225 104 -292 16
-27 30 -51 30 -52 0 -2 -16 -1 -36 1 -28 4 -42 14 -70 51 -56 75 -114 200
-125 270 -14 92 4 205 44 271 l22 35 8 -100 c4 -55 14 -138 23 -184z m2489 47
c87 -22 139 -60 275 -198 134 -137 185 -177 277 -225 l48 -24 -38 -1 c-97 0
-301 121 -537 320 -196 166 -186 153 -120 145 30 -4 73 -11 95 -17z m1074 -68
c37 0 70 7 96 20 21 11 40 18 42 16 9 -9 -38 -95 -55 -100 -25 -8 -103 9 -150
33 -21 11 -52 35 -70 54 l-34 35 58 -29 c43 -22 71 -29 113 -29z m-949 -439
c73 -47 201 -95 330 -124 81 -18 128 -21 322 -22 125 0 221 -3 214 -7 -7 -4
-53 -19 -102 -35 -81 -25 -103 -27 -254 -27 l-165 -1 -120 53 c-66 29 -140 66
-165 82 -43 28 -141 120 -127 120 3 0 34 -18 67 -39z m1663 -171 c37 -6 87
-20 110 -31 38 -19 137 -112 137 -128 0 -4 -34 -1 -76 6 -156 26 -327 34 -530
23 -108 -6 -198 -9 -200 -7 -6 5 186 83 262 106 59 18 150 35 214 40 8 0 46
-4 83 -9z m602 -373 c24 -13 26 -16 10 -17 -20 0 -125 45 -125 54 0 8 81 -18
115 -37z m-302 -57 c30 -11 85 -40 123 -64 l68 -44 -34 -6 c-92 -13 -423 -38
-575 -42 -199 -6 -200 -10 30 86 231 97 288 107 388 70z m680 -261 c180 -15
354 -74 452 -153 l29 -23 -49 -11 c-145 -31 -299 -23 -439 22 -39 13 -134 52
-210 87 -131 60 -137 64 -106 70 26 6 47 -1 108 -32 42 -21 81 -39 87 -39 5 0
-21 17 -60 38 l-70 37 55 6 c30 3 62 6 70 7 8 1 68 -3 133 -9z m-612 -568 c30
-11 64 -27 74 -35 59 -43 -230 -47 -433 -6 -62 13 -110 26 -107 29 4 3 50 14
103 23 131 23 287 19 363 -11z m-3776 -5318 c17 -144 20 -231 19 -608 0 -242
-5 -485 -9 -540 l-9 -100 -7 55 c-35 245 -64 785 -56 1015 6 156 26 345 37
345 3 0 15 -75 25 -167z m-2105 -100 c6 -43 19 -94 26 -113 13 -31 13 -40 -1
-77 -20 -52 -64 -92 -77 -69 -10 17 -12 233 -3 261 17 52 28 75 35 75 4 0 13
-35 20 -77z m3601 -990 c10 -12 15 -58 16 -178 2 -180 -9 -268 -21 -155 -3 36
-5 92 -5 125 2 81 -6 186 -16 208 -9 22 8 22 26 0z m164 -271 c-2 -35 -11 -74
-19 -88 -9 -13 -16 -30 -16 -39 0 -8 -4 -15 -10 -15 -5 0 -10 -7 -10 -15 0 -7
-6 -18 -13 -22 -8 -4 -18 -17 -23 -28 -17 -38 -16 85 1 155 13 55 14 78 6 127
-17 93 -7 102 44 41 42 -51 43 -53 40 -116z m-273 -165 c-5 -18 -9 -74 -8
-124 1 -51 -2 -93 -6 -93 -5 0 -8 -6 -8 -14 0 -8 -7 -16 -15 -20 -8 -3 -15
-13 -15 -21 0 -10 -7 -15 -17 -13 -25 5 -27 84 -2 124 10 17 19 47 19 66 0 20
7 41 15 48 8 7 15 27 15 45 0 19 3 41 6 50 13 32 27 -11 16 -48z m99 -33 c-5
-35 -9 -46 -10 -28 -1 34 9 97 15 91 2 -2 0 -30 -5 -63z m360 28 c-6 -11 -11
-38 -11 -59 0 -23 -10 -54 -25 -78 -13 -22 -25 -55 -25 -73 0 -18 -13 -58 -30
-89 -16 -31 -30 -71 -30 -90 0 -19 -9 -51 -20 -73 -11 -22 -20 -60 -21 -87 0
-42 -36 -149 -38 -115 -1 7 -5 10 -11 7 -5 -3 -10 1 -10 9 0 9 -4 16 -8 16
-10 0 -9 30 1 47 4 6 4 18 1 27 -4 9 -1 16 6 16 8 0 11 9 7 28 -4 18 2 40 19
67 13 22 24 48 24 58 0 10 11 33 25 51 14 18 25 44 25 58 0 15 7 29 16 32 10
4 14 14 11 26 -3 10 1 24 8 30 8 6 12 17 9 25 -3 7 -1 16 5 20 6 3 11 17 11
29 0 13 7 29 16 37 8 7 13 21 11 30 -3 10 1 23 9 30 8 6 14 23 14 37 0 19 3
23 11 15 8 -8 8 -17 0 -31z m119 -76 c10 -13 9 -25 -8 -68 -12 -29 -28 -82
-37 -118 -9 -36 -32 -102 -51 -148 -30 -72 -36 -98 -44 -210 -5 -70 -10 -145
-10 -167 -1 -35 -2 -38 -14 -22 -7 9 -18 17 -25 17 -6 0 -11 7 -11 15 0 8 -6
15 -13 15 -10 0 -13 17 -10 68 2 37 3 84 3 104 0 20 4 39 10 43 5 3 10 27 10
53 0 31 8 61 24 88 12 22 26 60 30 85 4 24 18 63 32 86 13 23 24 57 24 75 0
18 7 44 15 58 8 14 17 33 21 42 7 19 30 12 54 -16z m-270 -20 c0 -2 -7 -7 -16
-10 -8 -3 -12 -2 -9 4 6 10 25 14 25 6z m-74 -91 c-9 -7 -16 -18 -17 -26 0 -8
-9 -27 -20 -44 -10 -16 -21 -37 -25 -45 -3 -8 -10 -22 -15 -30 -5 -8 -12 -22
-15 -30 -3 -8 -10 -23 -15 -32 -5 -10 -9 -29 -9 -43 0 -14 -6 -25 -14 -25 -9
0 -13 14 -11 50 1 28 5 53 8 57 4 3 7 17 7 29 0 33 39 94 67 105 13 5 27 20
33 33 9 26 33 39 39 23 2 -6 -4 -16 -13 -22z m440 -56 c4 -8 10 -36 11 -64 2
-27 4 -68 6 -90 1 -22 5 -44 8 -50 19 -35 -9 -153 -61 -255 -29 -57 -29 -253
0 -310 11 -22 20 -51 20 -65 0 -14 5 -25 10 -25 6 0 10 -10 10 -21 0 -34 -26
-6 -44 46 -8 25 -26 60 -41 79 -14 19 -29 56 -34 83 -4 26 -15 64 -23 84 -18
41 -16 245 2 278 5 11 10 35 10 53 0 18 11 56 25 83 13 28 25 64 25 80 0 17
12 48 25 70 14 22 25 54 26 70 l1 30 7 -31 c4 -17 12 -37 17 -45z m153 -58
c28 -24 32 -34 27 -56 -7 -26 -51 -75 -67 -75 -5 0 -8 26 -7 58 1 31 -4 67
-10 79 -28 52 -8 50 57 -6z m146 -118 l33 -27 -19 -35 c-10 -20 -19 -44 -19
-53 0 -10 -12 -48 -26 -85 -20 -53 -24 -78 -19 -115 3 -26 1 -66 -5 -90 -10
-40 -4 -162 15 -313 3 -22 2 -33 -1 -25 -4 8 -19 44 -34 80 -17 40 -31 94 -35
140 -4 41 -14 95 -22 120 -21 62 -32 250 -15 250 6 0 12 9 12 20 0 11 5 20 10
20 6 0 10 6 10 14 0 8 16 33 35 56 19 23 35 48 35 56 0 20 6 18 45 -13z m-957
-9 c-4 -3 -2 -19 2 -35 5 -17 5 -29 -1 -29 -5 0 -8 -10 -6 -21 1 -12 -4 -24
-12 -27 -8 -3 -11 0 -7 7 4 6 3 11 -3 11 -14 0 -4 82 11 92 15 9 24 11 16 2z
m1077 -80 c31 -20 33 -66 6 -176 -14 -58 -17 -92 -12 -140 5 -35 6 -93 3 -129
-4 -55 0 -76 21 -125 13 -32 30 -78 36 -102 7 -23 25 -58 42 -76 16 -19 40
-58 53 -88 13 -29 40 -73 60 -97 20 -23 36 -53 36 -65 0 -13 9 -31 20 -41 11
-10 20 -28 20 -40 0 -12 11 -31 25 -43 26 -22 35 -75 15 -87 -16 -10 -49 13
-66 47 -9 17 -32 46 -50 63 -19 18 -34 38 -34 46 0 7 -15 29 -33 49 -19 19
-44 60 -56 91 -12 30 -37 77 -56 103 -20 29 -39 71 -46 105 -6 31 -23 83 -37
116 -23 55 -29 90 -47 280 -3 28 -5 66 -5 85 0 19 0 56 0 81 0 29 5 51 15 59
8 7 15 24 15 38 0 25 25 62 42 62 5 0 20 -7 33 -16z m80 -96 c-19 -105 6 -382
38 -428 9 -13 17 -36 17 -51 0 -14 9 -34 21 -45 12 -10 29 -35 39 -54 10 -20
30 -42 45 -50 15 -8 33 -27 41 -42 8 -15 27 -34 43 -43 16 -8 40 -29 52 -47
13 -18 32 -40 43 -49 25 -20 31 -113 8 -131 -8 -7 -19 -24 -24 -38 l-10 -25
-9 24 c-5 13 -20 37 -34 53 -14 16 -25 40 -25 52 0 12 -11 33 -24 46 -14 12
-28 35 -31 51 -4 16 -22 41 -40 56 -18 16 -44 53 -58 83 -13 30 -34 63 -45 74
-12 10 -26 41 -32 73 -7 30 -20 73 -29 96 -14 34 -17 69 -16 182 2 156 13 255
28 255 6 0 7 -16 2 -42z m-1089 -33 c0 -40 -4 -64 -10 -62 -15 5 -27 59 -16
72 6 7 7 15 4 18 -8 8 3 37 13 37 5 0 9 -29 9 -65z m1206 -6 c29 -21 29 -23
23 -83 -5 -46 -3 -72 9 -100 9 -21 16 -55 16 -76 0 -25 10 -52 30 -81 16 -24
30 -52 30 -61 0 -9 11 -28 25 -42 14 -14 25 -32 25 -39 0 -8 11 -22 25 -31 14
-9 25 -23 25 -30 0 -8 16 -26 35 -40 19 -15 35 -33 35 -41 0 -8 13 -21 29 -29
17 -9 32 -27 36 -43 3 -15 14 -36 23 -46 20 -22 17 -114 -4 -138 -8 -8 -14
-25 -14 -36 0 -11 -8 -27 -18 -36 -10 -9 -24 -32 -32 -51 -15 -39 -39 -54 -52
-34 -13 20 1 61 28 81 13 10 24 26 24 36 0 9 7 26 15 38 10 15 13 35 8 72 -5
49 -22 77 -79 131 -64 63 -82 78 -107 94 -15 9 -31 25 -34 34 -4 9 -24 36 -45
59 -21 24 -38 51 -38 61 0 10 -11 33 -25 52 -18 24 -25 47 -25 79 0 24 -8 71
-17 104 -14 50 -15 69 -5 117 7 31 12 66 12 78 0 27 4 27 42 1z m-2569 -140
c55 -106 58 -132 21 -238 -33 -96 -29 -147 21 -235 42 -75 43 -105 10 -162
-24 -40 -26 -42 -60 -34 -20 4 -45 6 -57 2 -19 -5 -20 -2 -15 24 16 72 19 189
8 303 -7 68 -12 164 -12 214 0 88 18 217 31 217 3 0 27 -41 53 -91z m1543 11
c0 -31 -2 -36 -18 -32 -10 2 -18 9 -18 14 0 5 -4 6 -10 3 -11 -7 -14 5 -12 45
3 46 10 53 34 29 15 -15 23 -35 24 -59z m1167 45 c30 -15 37 -24 37 -49 0 -17
9 -44 21 -61 11 -16 33 -55 49 -86 16 -31 54 -81 85 -110 32 -30 64 -67 72
-84 9 -16 33 -49 55 -73 45 -49 68 -97 68 -142 0 -17 5 -40 10 -50 10 -19 9
-33 -17 -202 -3 -21 -11 -42 -19 -49 -8 -6 -14 -21 -14 -33 0 -12 -7 -31 -15
-42 -8 -10 -15 -33 -15 -50 0 -49 -20 -58 -67 -33 -35 19 -54 49 -31 49 5 0 6
5 3 10 -3 6 -1 10 5 10 6 0 19 19 29 43 10 23 30 53 45 66 14 14 26 35 26 47
0 13 9 46 20 74 20 50 20 50 0 100 -11 28 -20 60 -20 71 0 20 -46 72 -185 208
-102 100 -124 128 -138 176 -8 28 -24 70 -36 95 -20 43 -30 146 -13 138 4 -2
24 -12 45 -23z m-660 -225 c8 -19 18 -62 22 -95 4 -33 9 -69 12 -80 5 -18 4
-19 -12 -4 -9 9 -19 36 -22 60 -4 24 -14 57 -24 74 -11 16 -16 39 -13 51 3 12
-1 35 -9 50 -12 24 -13 38 -3 77 l11 48 11 -73 c7 -40 19 -89 27 -108z m893
126 c11 -4 28 -22 37 -41 9 -19 34 -45 55 -59 21 -13 46 -36 55 -50 10 -14 37
-44 60 -65 36 -34 46 -52 70 -133 l28 -93 -21 -59 c-11 -33 -20 -68 -20 -78 0
-11 -4 -17 -9 -14 -5 3 -8 30 -6 58 1 39 -4 65 -21 99 -12 25 -25 62 -29 82
-4 21 -23 55 -44 79 -21 24 -48 62 -61 85 -13 23 -41 56 -62 73 -21 17 -38 40
-38 50 0 11 -11 27 -25 36 -29 19 -34 48 -7 40 9 -2 26 -7 38 -10z m182 -26
c33 0 41 -6 68 -48 18 -26 41 -66 53 -89 11 -23 34 -51 51 -63 21 -15 30 -30
30 -49 0 -15 3 -31 8 -35 10 -11 11 -127 1 -120 -5 3 -9 24 -9 47 0 23 -7 51
-15 61 -8 11 -15 30 -15 41 0 12 -15 38 -32 58 -81 88 -96 103 -128 122 -40
24 -96 93 -67 82 10 -4 35 -7 55 -7z m217 0 c7 0 30 -28 53 -62 22 -35 54 -73
71 -86 40 -29 64 -79 85 -171 21 -98 20 -121 -8 -160 -13 -18 -27 -48 -30 -67
-4 -20 -17 -41 -30 -50 -13 -8 -30 -29 -37 -47 -7 -18 -25 -47 -41 -65 -15
-18 -28 -43 -28 -56 0 -13 -7 -29 -15 -36 -8 -7 -15 -25 -15 -40 0 -15 -6 -33
-14 -40 -8 -6 -12 -18 -9 -27 4 -11 2 -14 -8 -11 -8 3 -13 15 -12 27 2 12 -2
32 -8 43 -7 14 -8 23 0 31 5 5 7 23 4 38 -4 21 -1 30 11 35 9 3 16 17 16 30 0
12 11 35 25 50 14 15 25 37 25 50 0 13 8 28 19 33 10 6 21 26 24 47 3 20 13
44 21 53 29 33 37 221 10 248 -8 8 -14 22 -14 31 0 10 -9 23 -20 30 -11 7 -20
19 -20 27 0 8 -5 15 -11 15 -15 0 -59 42 -59 56 0 7 -9 14 -20 17 -11 3 -20
14 -20 24 0 10 -6 25 -12 32 -11 11 -7 13 21 7 18 -3 39 -6 46 -6z m178 -56
c50 -26 97 -65 97 -80 0 -8 4 -22 9 -32 35 -71 61 -254 42 -301 -6 -14 -10
-42 -9 -61 0 -20 -10 -56 -25 -85 -14 -28 -28 -77 -32 -110 -4 -33 -14 -84
-23 -113 -17 -56 -14 -82 23 -205 18 -58 15 -81 -7 -59 -7 7 -26 12 -42 12
-17 0 -40 7 -50 15 -11 8 -31 15 -44 15 -69 0 -90 110 -39 205 14 28 37 75 50
105 13 30 42 76 64 103 31 37 47 71 73 158 30 100 32 114 21 143 -8 17 -16 47
-18 66 -3 19 -14 44 -24 55 -10 12 -22 35 -25 53 -4 19 -18 41 -34 52 -16 11
-33 33 -38 50 -13 35 -11 35 31 14z m-1376 -367 c-5 -17 -34 33 -41 73 -6 34
-6 34 19 -13 15 -27 24 -54 22 -60z m1630 19 c-3 -8 -2 -16 3 -18 8 -3 11 -75
10 -227 -1 -24 -7 -53 -15 -65 -8 -11 -15 -39 -15 -63 0 -23 -5 -45 -10 -48
-6 -4 -10 -23 -9 -43 0 -20 -2 -51 -6 -68 -4 -20 -3 -34 4 -38 6 -4 11 -22 11
-40 0 -21 8 -40 21 -52 12 -10 27 -31 35 -46 8 -15 24 -30 36 -33 33 -10 66
-44 64 -63 -4 -21 -55 -18 -72 4 -6 8 -18 14 -26 14 -18 0 -43 27 -52 57 -4
11 -13 27 -21 33 -8 7 -15 23 -15 35 0 12 -7 28 -15 35 -8 7 -14 25 -13 39 1
15 -4 41 -11 59 -10 24 -11 39 -2 63 6 18 11 50 11 73 0 24 8 53 20 71 11 17
20 44 20 60 0 17 6 39 14 50 8 11 17 45 20 75 9 77 9 91 1 123 -5 18 -3 27 5
27 7 0 10 -6 7 -14z m159 -291 c4 -62 11 -99 24 -120 16 -25 16 -33 5 -48 -7
-10 -11 -26 -8 -36 2 -9 -2 -23 -11 -30 -10 -9 -13 -22 -9 -42 7 -38 -8 -37
-41 2 -21 25 -26 41 -26 87 0 32 -4 71 -9 88 -5 20 -5 49 2 77 7 34 7 61 -1
99 -6 29 -13 81 -15 116 l-3 62 43 -82 c39 -75 44 -91 49 -173z m-670 6 c-9
-10 -17 -31 -17 -47 0 -16 -1 -55 -3 -87 -1 -32 1 -60 6 -63 5 -3 6 -10 2 -15
-3 -5 -1 -15 4 -22 5 -7 6 -21 1 -32 -4 -11 -8 -16 -8 -11 -1 5 -8 3 -16 -4
-8 -7 -15 -9 -15 -4 0 5 -4 4 -8 -2 -11 -17 -52 2 -52 24 0 10 -3 22 -7 25
-24 25 3 124 48 174 16 19 29 40 29 47 0 7 10 26 22 42 19 24 23 26 26 10 2
-9 -4 -26 -12 -35z m2834 39 c0 -5 -9 -10 -21 -10 -11 0 -17 5 -14 10 3 6 13
10 21 10 8 0 14 -4 14 -10z m-60 -9 c0 -5 -6 -11 -12 -14 -18 -6 -39 3 -32 14
7 12 44 12 44 0z m-224 -141 c5 0 30 -11 55 -25 26 -13 49 -22 53 -20 3 3 -1
-3 -9 -12 -20 -23 -93 -18 -118 8 -10 10 -24 19 -33 19 -23 0 -29 29 -8 45 16
11 21 11 35 -1 8 -8 20 -14 25 -14z m-3038 -109 c21 -17 29 -51 16 -64 -3 -3
-16 4 -29 16 -15 15 -20 27 -14 38 5 9 5 19 2 23 -15 14 6 4 25 -13z m2830
-64 c10 -10 28 -17 39 -17 11 0 27 -8 34 -17 12 -14 12 -16 -1 -8 -8 5 -44 8
-80 7 -36 -1 -90 4 -120 11 l-55 13 39 20 c44 24 113 19 144 -9z m-2948 -76
c0 -6 -7 -11 -15 -11 -8 0 -15 9 -15 20 0 11 -7 23 -15 26 -8 4 -15 12 -15 20
0 9 11 3 30 -14 17 -16 30 -34 30 -41z m265 29 c20 -11 40 -18 46 -15 5 4 9 1
9 -4 0 -6 7 -11 15 -11 14 0 19 -12 16 -32 0 -5 3 -8 7 -8 5 0 9 -13 10 -30 1
-37 -7 -38 -38 -5 -13 14 -31 25 -39 25 -9 0 -22 9 -29 20 -7 11 -21 20 -32
20 -17 0 -20 5 -16 28 2 15 5 28 5 30 2 5 12 1 46 -18z m383 -12 c5 -7 13 -29
17 -48 4 -19 12 -41 17 -47 8 -10 5 -13 -10 -13 -11 0 -22 7 -26 15 -3 8 -11
15 -17 15 -6 0 -22 11 -34 24 -23 25 -17 46 12 46 7 0 13 5 13 10 0 14 16 13
28 -2z m2456 -3 c26 -19 2 -19 -39 0 -29 13 -29 13 -5 14 14 0 34 -6 44 -14z
m-469 -75 c3 -6 -1 -7 -9 -4 -18 7 -21 14 -7 14 6 0 13 -4 16 -10z m106 -8
c-13 -2 -27 0 -32 5 -6 6 3 7 23 4 28 -4 29 -6 9 -9z m-1888 -40 c12 1 33 -5
47 -15 13 -9 35 -17 47 -17 13 0 29 -11 39 -25 9 -13 24 -27 35 -30 10 -4 19
-15 19 -25 0 -11 8 -24 19 -29 10 -6 22 -22 25 -36 4 -14 13 -25 21 -25 15 0
40 -38 31 -47 -7 -7 -56 25 -56 36 0 5 -17 16 -37 24 -21 8 -49 27 -63 42 -14
15 -44 36 -67 46 -24 10 -43 23 -43 29 0 5 -18 28 -41 51 -22 22 -31 35 -19
29 12 -6 31 -10 43 -8z m1078 -8 c32 -5 40 -12 49 -40 6 -18 26 -45 43 -60 18
-15 44 -45 59 -67 15 -23 42 -50 61 -61 35 -22 67 -50 67 -60 0 -13 -33 -5
-57 14 -14 11 -36 20 -48 20 -12 0 -30 9 -41 21 -10 11 -33 27 -51 34 -18 8
-37 25 -42 39 -6 13 -26 40 -45 60 -20 19 -36 43 -36 53 0 10 -8 29 -17 43
-16 22 -16 23 1 17 10 -4 35 -10 57 -13z m371 -35 c13 -25 15 -35 6 -38 -7 -2
-14 2 -16 9 -3 7 -13 21 -24 32 -19 19 -16 42 5 35 7 -2 20 -19 29 -38z m368
-9 c0 -5 -5 -10 -11 -10 -5 0 -7 5 -4 10 3 6 8 10 11 10 2 0 4 -4 4 -10z
m-1240 -264 c0 -12 9 -31 21 -42 11 -10 26 -28 31 -38 8 -14 -2 -10 -31 13
-22 18 -41 41 -41 50 0 10 -11 28 -25 41 -14 13 -25 34 -25 46 0 22 2 21 35
-12 20 -19 35 -45 35 -58z m-227 4 c5 -20 4 -20 -16 -7 -12 8 -24 22 -25 32
-6 25 34 2 41 -25z m-1613 -3284 c0 -12 -34 -36 -50 -36 -16 0 -19 11 -11 38
2 4 61 2 61 -2z m1390 -100 c0 -3 -4 -8 -10 -11 -5 -3 -10 -1 -10 4 0 6 5 11
10 11 6 0 10 -2 10 -4z m-2675 -65 c7 -12 -12 -24 -25 -16 -11 7 -4 25 10 25
5 0 11 -4 15 -9z m-204 -16 l34 -14 -47 -1 c-44 0 -65 9 -51 24 10 10 28 7 64
-9z"/>
<path d="M12698 14723 c7 -3 16 -2 19 1 4 3 -2 6 -13 5 -11 0 -14 -3 -6 -6z"/>
<path d="M12748 14713 c7 -3 16 -2 19 1 4 3 -2 6 -13 5 -11 0 -14 -3 -6 -6z"/>
<path d="M12938 15203 c6 -2 18 -2 25 0 6 3 1 5 -13 5 -14 0 -19 -2 -12 -5z"/>
<path d="M11458 4683 c6 -2 18 -2 25 0 6 3 1 5 -13 5 -14 0 -19 -2 -12 -5z"/>
<path d="M11850 1785 c-7 -9 -8 -15 -2 -15 5 0 12 7 16 15 3 8 4 15 2 15 -2 0
-9 -7 -16 -15z"/>
<path d="M12188 1795 c-3 -3 -23 -6 -44 -7 -44 -1 -88 -24 -63 -32 8 -3 30 -4
49 -3 28 2 37 -3 45 -21 7 -17 16 -22 33 -19 13 3 22 -1 22 -8 0 -15 59 -12
87 4 17 10 17 10 0 11 -10 0 -20 7 -23 15 -4 10 -20 15 -51 15 -29 0 -42 4
-37 11 3 6 16 8 28 5 20 -5 76 13 76 24 0 8 -115 12 -122 5z"/>
</g>
</svg>
