<?xml version="1.0" standalone="no"?>
<!DOCTYPE svg PUBLIC "-//W3C//DTD SVG 20010904//EN"
 "http://www.w3.org/TR/2001/REC-SVG-20010904/DTD/svg10.dtd">
<svg version="1.0" xmlns="http://www.w3.org/2000/svg"
 width="900.000000pt" height="394.000000pt" viewBox="0 0 900.000000 394.000000"
 preserveAspectRatio="xMidYMid meet">

<g transform="translate(0.000000,394.000000) scale(0.100000,-0.100000)"
fill="#000000" stroke="none">
<path d="M7920 3656 c-25 -7 -59 -20 -76 -29 -42 -22 -109 -97 -125 -140 l-13
-37 -1447 0 -1448 0 -48 42 c-26 23 -68 51 -93 62 -44 21 -58 21 -889 24 -722
2 -847 0 -866 -12 -12 -8 -37 -37 -54 -65 l-33 -51 -93 0 c-84 0 -97 -3 -150
-31 l-57 -30 -37 29 c-67 54 -120 75 -204 80 -132 8 -213 -30 -235 -111 -21
-77 26 -152 141 -225 111 -70 125 -104 80 -192 -40 -79 -55 -84 -258 -88 -181
-3 -264 -16 -350 -56 -108 -49 -168 -128 -189 -249 -15 -91 -52 -155 -191
-337 -438 -574 -534 -714 -686 -1005 -164 -314 -249 -606 -266 -917 l-6 -117
35 -35 36 -36 723 0 c671 0 726 2 745 18 35 28 43 53 59 188 40 337 101 677
176 983 77 317 154 411 339 411 110 0 140 -40 140 -185 1 -350 239 -560 659
-583 338 -19 580 39 722 174 105 101 143 206 157 436 5 80 14 145 23 163 23
48 57 54 317 54 l234 1 32 33 c27 26 43 63 89 207 83 259 147 524 147 611 0 5
146 9 361 9 308 0 366 2 394 16 36 17 65 65 65 108 l0 26 1300 0 c1436 0 1341
-4 1374 64 13 28 16 72 16 261 0 148 -4 234 -11 248 -20 38 -50 66 -80 72 -21
5 -31 15 -40 43 -17 53 -104 135 -164 156 -65 23 -197 29 -255 12z m197 -118
c26 -10 21 -12 -67 -28 -105 -18 -102 -22 27 -41 45 -7 80 -16 77 -20 -6 -11
-311 -11 -318 0 -10 15 35 63 78 82 47 21 159 26 203 7z m-3537 -79 c36 -8 68
-25 106 -55 30 -25 67 -50 82 -57 21 -9 437 -13 1805 -15 l1777 -2 0 -45 0
-45 -2025 0 c-1758 0 -2025 2 -2025 14 0 8 -10 22 -22 30 -20 14 -90 16 -563
16 -417 0 -545 -3 -558 -12 -11 -8 -19 -32 -22 -62 -4 -37 -12 -55 -35 -76
-34 -32 -64 -97 -88 -190 -24 -94 -23 -410 1 -498 25 -93 56 -160 87 -185 20
-18 28 -35 32 -72 4 -30 13 -54 24 -62 14 -10 130 -13 565 -13 l548 0 19 25
20 25 216 0 c119 0 216 -1 216 -3 0 -2 -7 -24 -16 -49 l-15 -46 -72 -6 c-78
-6 -186 -9 -832 -26 -613 -16 -682 -24 -315 -34 567 -16 592 -23 89 -24 -291
-1 -498 -6 -535 -13 -75 -14 -166 -57 -224 -106 -43 -37 -44 -37 -23 -7 23 33
78 84 128 121 l30 22 -59 -15 c-33 -9 -80 -26 -106 -39 -55 -28 -166 -110
-179 -132 -8 -15 -12 -15 -48 -1 -21 9 -59 19 -84 23 l-46 7 9 46 c12 60 1
180 -23 257 -54 176 -203 321 -401 393 -66 24 -86 27 -208 26 -101 0 -146 -4
-177 -17 l-43 -16 0 25 c0 38 36 100 75 129 70 54 141 68 350 70 208 2 250 10
354 65 158 85 404 334 571 580 l41 60 774 0 c526 0 790 -4 825 -11z m-2217
-95 c18 -9 44 -27 59 -40 59 -49 149 -56 205 -16 36 26 103 40 103 22 0 -16
-53 -81 -139 -173 l-64 -68 -28 50 c-40 69 -101 118 -178 141 -70 22 -90 20
-43 -4 30 -16 102 -92 102 -109 0 -4 -15 7 -33 25 -18 18 -61 50 -95 71 -74
45 -101 79 -82 102 18 22 150 21 193 -1z m1837 -185 c0 -20 -4 -21 -67 -15
-38 3 -153 11 -258 17 -104 6 -192 13 -194 15 -2 2 113 4 257 4 260 0 262 0
262 -21z m4150 -29 c0 -20 -7 -20 -2025 -20 -2018 0 -2025 0 -2025 20 0 20 7
20 2025 20 2018 0 2025 0 2025 -20z m-5226 -320 c1 -199 -7 -279 -26 -245 -14
23 -17 336 -4 420 15 105 28 29 30 -175z m1076 195 c0 -30 -3 -35 -22 -35 -13
0 -122 -7 -243 -15 -121 -8 -254 -15 -295 -15 -43 0 -70 -4 -65 -9 6 -5 107
-14 225 -20 118 -6 257 -14 308 -17 l92 -7 0 -28 0 -29 -485 0 -485 0 0 98 c0
54 3 102 7 105 3 4 222 7 485 7 l478 0 0 -35z m3820 -102 c180 -5 207 -8 165
-16 -68 -14 -2073 -15 -2100 -2 -30 15 109 20 559 23 215 1 392 4 394 7 5 5
690 -3 982 -12z m-1963 -9 c-3 -3 -12 -4 -19 -1 -8 3 -5 6 6 6 11 1 17 -2 13
-5z m-397 -44 c0 -26 -4 -30 -27 -30 -51 0 -789 -31 -928 -39 -123 -7 -130 -8
-60 -11 306 -11 302 -17 -12 -18 l-333 -2 0 65 0 65 680 0 680 0 0 -30z m-823
-265 c-4 -36 -12 -92 -19 -125 -14 -69 16 -60 -268 -86 -173 -16 -215 -23
-149 -25 19 -1 45 -5 59 -9 17 -5 -6 -8 -67 -9 l-93 -1 0 160 0 160 271 0 272
0 -6 -65z m-637 5 l0 -30 -485 0 -485 0 0 30 0 30 485 0 485 0 0 -30z m0 -225
l0 -26 -197 7 c-109 3 -243 10 -298 14 l-100 7 75 3 c41 2 149 6 240 10 306
12 280 14 280 -15z m-618 -66 c106 -13 117 -24 15 -15 -89 8 -148 25 -155 44
-3 10 3 10 27 -2 17 -9 68 -21 113 -27z m-1692 -139 c11 -7 -1 -10 -41 -10
-64 0 -109 -24 -146 -79 -67 -99 15 -241 139 -241 62 0 101 20 138 72 32 44
39 44 16 0 -19 -36 -65 -78 -99 -91 -35 -13 -97 -14 -130 -2 -83 32 -137 133
-116 217 13 48 59 106 104 129 34 17 112 20 135 5z m-587 -112 c-41 -53 -279
-393 -339 -484 -142 -219 -275 -468 -347 -649 -77 -193 -137 -458 -137 -605
l0 -60 148 0 c239 0 995 -22 1016 -30 23 -8 -257 -17 -811 -26 l-412 -7 -7 27
c-10 43 4 197 31 334 76 376 260 744 589 1177 82 109 267 335 273 335 3 0 1
-6 -4 -12z m2399 -240 c75 -35 138 -94 179 -170 32 -60 34 -68 34 -163 0 -92
-2 -104 -30 -154 -33 -60 -85 -107 -160 -144 -92 -46 -159 -59 -340 -64 -148
-4 -181 -2 -256 15 -214 51 -337 162 -356 320 -12 107 51 246 146 316 l46 35
19 -27 c26 -36 123 -132 160 -157 29 -21 29 -21 30 -130 2 -121 16 -163 73
-217 56 -54 201 -100 224 -71 10 11 7 19 -13 41 -42 45 -76 104 -88 153 -15
61 -2 110 53 189 92 134 103 166 72 220 -8 14 -14 29 -15 34 0 5 37 7 83 4 60
-3 97 -11 139 -30z m366 3 c-22 -26 -34 -50 -53 -106 -5 -17 -10 -14 -34 25
-16 25 -40 56 -55 69 -14 14 -26 28 -26 33 0 4 43 8 96 8 l96 0 -24 -29z
m-829 -459 c11 -22 40 -57 63 -77 38 -33 40 -36 11 -21 -63 32 -115 120 -112
192 1 24 3 21 9 -13 5 -22 18 -59 29 -81z m751 21 c-32 -156 -151 -270 -336
-318 -143 -37 -414 -37 -528 1 l-41 13 55 -7 c90 -12 389 -7 455 7 111 24 207
67 267 121 61 54 111 140 123 210 4 23 9 39 12 36 3 -2 -1 -31 -7 -63z m-3295
-873 c3 -5 -3 -10 -13 -10 -33 0 -65 -34 -65 -68 0 -67 70 -95 118 -47 30 29
34 8 5 -23 -31 -33 -68 -38 -109 -16 -44 24 -60 68 -41 114 18 44 88 78 105
50z m985 -20 c0 -5 -11 -10 -24 -10 -50 0 -80 -62 -52 -105 29 -43 88 -41 123
4 9 11 12 12 13 3 0 -18 -46 -62 -67 -63 -61 -4 -113 38 -113 92 0 42 48 89
89 89 17 0 31 -4 31 -10z"/>
<path d="M2470 2716 c0 -14 89 -187 140 -271 62 -102 169 -249 177 -242 10 11
-118 249 -196 365 -73 108 -121 166 -121 148z"/>
<path d="M1795 2640 c-27 -5 -68 -16 -90 -25 l-40 -15 39 6 c66 10 220 6 272
-7 63 -15 180 -68 236 -107 65 -45 148 -134 189 -202 47 -78 81 -202 82 -303
1 -56 4 -71 10 -55 5 13 8 68 8 123 0 155 -43 269 -145 382 -134 148 -377 236
-561 203z"/>
<path d="M2640 2567 c0 -3 15 -40 34 -81 40 -88 108 -195 160 -251 32 -35 36
-37 30 -15 -12 45 -85 183 -129 245 -41 57 -95 116 -95 102z"/>
<path d="M3483 3015 c-72 -31 -63 -107 17 -130 l25 -7 -27 29 c-35 36 -35 57
-1 89 32 30 28 36 -14 19z"/>
</g>
</svg>
