<?xml version="1.0" standalone="no"?>
<!DOCTYPE svg PUBLIC "-//W3C//DTD SVG 20010904//EN"
 "http://www.w3.org/TR/2001/REC-SVG-20010904/DTD/svg10.dtd">
<svg version="1.0" xmlns="http://www.w3.org/2000/svg"
 width="358.000000pt" height="298.000000pt" viewBox="0 0 358.000000 298.000000"
 preserveAspectRatio="xMidYMid meet">

<g transform="translate(0.000000,298.000000) scale(0.100000,-0.100000)"
fill="#000000" stroke="none">
<path d="M1093 2619 c-23 -11 -69 -49 -102 -84 -182 -195 -337 -751 -317
-1140 26 -525 272 -931 668 -1102 296 -128 696 -127 992 3 212 93 400 275 511
493 104 205 166 520 150 761 -19 299 -116 661 -230 865 -46 83 -134 178 -189
204 -97 48 -227 10 -281 -82 -20 -36 -25 -57 -25 -116 0 -77 21 -149 114 -401
121 -323 150 -589 89 -815 -48 -183 -160 -319 -324 -398 -128 -61 -179 -72
-334 -71 -112 1 -141 5 -210 27 -228 75 -363 228 -419 476 -11 47 -16 119 -16
222 0 189 24 308 112 549 100 275 119 339 119 408 1 48 -5 75 -23 110 -50 98
-184 141 -285 91z m157 -84 c43 -22 60 -53 60 -110 0 -65 -15 -117 -85 -304
-109 -292 -146 -460 -147 -666 0 -209 45 -378 138 -514 l44 -66 -38 43 c-84
94 -152 268 -172 437 -8 76 -9 74 -6 -45 4 -141 28 -232 92 -347 207 -372 783
-482 1176 -224 194 127 306 332 313 576 4 105 4 107 -6 40 -23 -175 -92 -342
-177 -432 -26 -27 -38 -38 -26 -24 71 87 128 207 155 326 18 79 18 398 0 480
-24 112 -72 268 -136 439 -75 202 -90 270 -72 323 14 45 67 83 111 83 31 -1
31 -1 -8 -15 -22 -8 -51 -26 -65 -40 l-26 -26 45 25 c55 31 90 32 147 5 75
-36 142 -140 208 -324 140 -385 169 -825 75 -1129 -12 -37 -23 -66 -25 -64 -1
1 8 45 21 97 13 51 28 141 34 200 18 186 10 251 -10 86 -47 -391 -209 -698
-462 -878 -79 -56 -166 -97 -285 -134 -83 -26 -99 -27 -288 -27 -190 0 -205 1
-290 27 -287 88 -471 248 -610 532 -59 121 -109 283 -125 409 -26 195 -29 206
-24 71 4 -113 14 -192 38 -310 6 -27 5 -26 -8 5 -54 139 -67 475 -27 709 56
327 158 590 267 690 75 69 146 79 208 30 14 -11 26 -16 26 -10 0 13 -47 45
-85 59 -26 9 -27 11 -7 11 13 1 36 -6 52 -14z"/>
<path d="M1143 2358 c-62 -67 -141 -281 -131 -356 3 -24 7 -20 32 33 39 85
127 326 124 337 -2 5 -13 -1 -25 -14z"/>
<path d="M2500 2376 c0 -24 135 -371 152 -391 27 -31 -10 161 -47 243 -38 85
-105 178 -105 148z"/>
<path d="M930 1873 c-49 -18 -66 -76 -34 -121 19 -28 83 -31 106 -4 27 32 32
47 6 25 -42 -39 -88 -25 -88 27 0 52 52 68 91 28 20 -21 21 -22 11 -2 -19 37
-61 58 -92 47z"/>
<path d="M2680 1873 c-51 -18 -69 -93 -32 -126 26 -24 85 -22 107 3 10 11 16
22 13 25 -3 3 -11 -1 -18 -10 -19 -23 -57 -18 -76 10 -15 23 -15 27 0 50 19
29 51 32 78 8 10 -9 18 -12 18 -6 0 25 -61 56 -90 46z"/>
<path d="M851 1464 c-45 -57 -11 -117 61 -112 30 2 45 9 57 28 l16 25 -28 -22
c-39 -30 -87 -9 -87 38 0 47 67 65 94 27 9 -12 16 -18 16 -12 0 6 -9 20 -20
32 -30 32 -82 30 -109 -4z"/>
<path d="M2691 1464 c-24 -30 -26 -46 -10 -77 16 -29 28 -37 61 -37 37 0 57 9
70 33 10 20 10 20 -16 -1 -38 -29 -86 -7 -86 39 0 47 67 65 94 27 9 -12 16
-18 16 -12 0 6 -9 20 -20 32 -30 32 -82 30 -109 -4z"/>
<path d="M942 1094 c-27 -18 -31 -84 -6 -108 36 -36 91 -28 115 16 l12 21 -27
-20 c-50 -40 -107 8 -72 62 20 30 49 32 76 5 11 -11 20 -15 20 -10 0 20 -41
50 -68 50 -15 0 -38 -7 -50 -16z"/>
<path d="M2612 1087 c-30 -31 -28 -72 4 -104 20 -20 31 -24 56 -19 33 7 58 23
58 37 0 5 -11 2 -25 -7 -23 -15 -27 -15 -50 0 -29 19 -33 56 -9 80 21 22 43
20 72 -6 l25 -23 -12 22 c-24 47 -84 57 -119 20z"/>
<path d="M1142 773 c-12 -10 -24 -30 -28 -45 -5 -22 0 -33 24 -58 17 -16 39
-30 50 -30 22 0 72 36 72 51 0 6 -7 3 -16 -5 -18 -19 -55 -21 -72 -4 -7 7 -12
24 -12 38 0 48 45 67 82 33 10 -9 18 -11 18 -5 0 17 -42 42 -71 42 -15 0 -36
-8 -47 -17z"/>
<path d="M2410 770 c-28 -28 -26 -75 5 -105 13 -14 33 -25 43 -25 23 0 72 37
72 53 0 7 -5 4 -11 -5 -12 -21 -59 -24 -77 -6 -7 7 -12 24 -12 38 0 14 5 31
12 38 17 17 53 15 68 -3 7 -9 15 -13 18 -10 3 3 -3 14 -13 25 -24 26 -79 26
-105 0z"/>
<path d="M1375 566 c44 -39 180 -103 260 -122 96 -24 297 -24 385 -1 76 20
214 84 250 116 14 12 18 20 10 17 -8 -2 -62 -20 -120 -40 -257 -85 -494 -71
-795 48 -14 6 -10 0 10 -18z"/>
</g>
</svg>
